<svg width="100" height="65" viewBox="0 0 100 65" fill="none" xmlns="http://www.w3.org/2000/svg">
<path d="M24.2705 1.5H57.6934C58.9855 1.50015 60.2581 1.77001 61.415 2.28613C62.5717 2.80216 63.5788 3.54943 64.3672 4.46387V4.46289L81.3633 24.1865L81.8125 24.707H85C92.563 24.707 98.5 30.3732 98.5 37.1318V48.7354C98.4998 49.0859 98.1597 49.5557 97.5 49.5557H88.5V51.0557C88.5 57.8143 82.563 63.4805 75 63.4805C67.437 63.4805 61.5 57.8143 61.5 51.0557V49.5557H38.5V51.0557C38.5 57.8143 32.563 63.4805 25 63.4805C17.437 63.4805 11.5 57.8143 11.5 51.0557V49.5557H2.5C1.84032 49.5557 1.50022 49.0859 1.5 48.7354V32.4902C1.5 28.9575 4.12172 25.89 7.85059 24.9932L8.58691 24.8164L8.88184 24.1191L16.3633 6.42871C17.6255 3.49936 20.7297 1.5 24.2705 1.5ZM25 42.5938C20.1427 42.5938 16 46.2848 16 51.0557C16 55.8266 20.1427 59.5176 25 59.5176C29.8573 59.5176 34 55.8266 34 51.0557C34 46.2848 29.8573 42.5938 25 42.5938ZM75 42.5938C70.1427 42.5938 66 46.2848 66 51.0557C66 55.8266 70.1427 59.5176 75 59.5176C79.8573 59.5176 84 55.8266 84 51.0557C84 46.2848 79.8573 42.5938 75 42.5938ZM22.8926 8.68945L16.8926 22.6133L15.9902 24.707H37.75V7.7832H23.2832L22.8926 8.68945ZM42.25 24.707H72.9668L70.8301 22.2275L58.8301 8.30371L58.3809 7.7832H42.25V24.707Z" stroke="#F07807" stroke-width="3"/>
</svg>
