<svg width="100" height="65" viewBox="0 0 100 65" fill="none" xmlns="http://www.w3.org/2000/svg">
<path d="M38 38.6318H38.9902C42.3476 40.0796 46.044 40.9521 50 40.9521C53.9541 40.9521 57.6655 40.0806 61.0117 38.6318H62C71.2161 38.6318 78.5 45.5476 78.5 53.8408V58.0176C78.5 60.9297 75.9193 63.4805 72.5 63.4805H27.5C24.0807 63.4805 21.5 60.9297 21.5 58.0176V53.8408C21.5 45.5476 28.7839 38.6318 38 38.6318ZM80 33.9902H90C94.7941 33.9902 98.4998 37.5841 98.5 41.7725V46.4141C98.5 48.0498 97.0443 49.5557 95 49.5557H85.9492C84.7162 43.5041 80.9443 38.3695 75.7256 35.0479C76.9774 34.378 78.434 33.9902 80 33.9902ZM10 33.9902H20C21.5657 33.9902 23.0218 34.3782 24.2734 35.0479C19.0541 38.37 15.2825 43.5052 14.0381 49.5557H5C2.95573 49.5557 1.5 48.0498 1.5 46.4141V41.7725L1.51074 41.3818C1.73274 37.3631 5.35562 33.9902 10 33.9902ZM50 1.5C58.9505 1.5 66 8.19844 66 16.2451C65.9999 24.2917 58.9505 30.9902 50 30.9902C41.0495 30.9902 34.0001 24.2917 34 16.2451C34 8.19844 41.0495 1.5 50 1.5ZM15 10.7832C19.7942 10.7832 23.4998 14.3771 23.5 18.5654C23.5 22.7539 19.7943 26.3486 15 26.3486C10.2057 26.3486 6.5 22.7539 6.5 18.5654C6.50017 14.3771 10.2058 10.7832 15 10.7832ZM85 10.7832C89.7942 10.7832 93.4998 14.3771 93.5 18.5654C93.5 22.7539 89.7943 26.3486 85 26.3486C80.2057 26.3486 76.5 22.7539 76.5 18.5654C76.5002 14.3771 80.2058 10.7832 85 10.7832Z" stroke="#F07807" stroke-width="3"/>
</svg>
