<svg width="100" height="65" viewBox="0 0 100 65" fill="none" xmlns="http://www.w3.org/2000/svg">
<path d="M17.5 1.5H57.5C61.1188 1.5 63.5 3.83357 63.5 6.0918V13.6836H71.8906C73.4583 13.6836 74.9307 14.1653 76.0273 14.9717L76.2422 15.1367L91.8516 27.8154C92.9592 28.7152 93.4999 29.8566 93.5 30.9531V46.1719H97.5C97.862 46.1719 98.1489 46.2934 98.3203 46.4326C98.4899 46.5704 98.5 46.6765 98.5 46.7031V50.7637C98.5 50.7903 98.4895 50.8956 98.3203 51.0332C98.1489 51.1725 97.862 51.2949 97.5 51.2949H88.5V52.7949C88.4997 58.4161 82.7592 63.4775 75 63.4775C67.2408 63.4775 61.5003 58.4161 61.5 52.7949V51.2949H38.5V52.7949C38.4997 58.4161 32.7592 63.4775 25 63.4775C17.2408 63.4775 11.5003 58.4161 11.5 52.7949V38.0498H33.75C34.9592 38.0498 36.4997 37.1982 36.5 35.5352V33.5039C36.4998 31.8408 34.9593 30.9893 33.75 30.9893H1.5V29.9277H38.75C39.9594 29.9277 41.5 29.0754 41.5 27.4121V25.3818C41.4999 23.7186 39.9593 22.8662 38.75 22.8662H6.5V21.8057H43.75C44.9594 21.8057 46.5 20.9533 46.5 19.29V17.2598C46.5 15.5965 44.9594 14.7441 43.75 14.7441H1.5V13.6836H11.5V6.0918C11.5 3.83357 13.8812 1.5 17.5 1.5ZM25 45.2031C20.3375 45.2031 16 48.3269 16 52.7949C16.0003 57.2626 20.3377 60.3857 25 60.3857C29.6623 60.3857 33.9997 57.2626 34 52.7949C34 48.3269 29.6625 45.2031 25 45.2031ZM75 45.2031C70.3375 45.2031 66 48.3269 66 52.7949C66.0003 57.2626 70.3377 60.3857 75 60.3857C79.6623 60.3857 83.9997 57.2626 84 52.7949C84 48.3269 79.6625 45.2031 75 45.2031ZM89 30.2393L88.4453 29.7891L72.8359 17.1104L72.4229 16.7754H63.5V33.9893H89V30.2393Z" stroke="#F07807" stroke-width="3"/>
</svg>
