<svg width="143" height="57" viewBox="0 0 143 57" fill="none" xmlns="http://www.w3.org/2000/svg">
<path d="M24 3.36816C14.4694 3.36816 5.92659 6.86091 0 12.4402L24 48.7285L48 12.4402C42.1001 6.88359 33.5306 3.36816 24 3.36816ZM10.6518 14.7082C10.6518 12.2134 13.0545 10.1722 15.9911 10.1722C18.9277 10.1722 21.3304 12.2134 21.3304 14.7082C21.3304 17.2031 18.9277 19.2443 15.9911 19.2443C13.0545 19.2443 10.6518 17.2031 10.6518 14.7082ZM24 32.8524C21.0634 32.8524 18.6607 30.8111 18.6607 28.3163C18.6607 25.8215 21.0634 23.7803 24 23.7803C26.9366 23.7803 29.3393 25.8215 29.3393 28.3163C29.3393 30.8111 26.9366 32.8524 24 32.8524Z" fill="white"/>
<path d="M67.1719 7.10938H66.8906C65.4688 7.10938 64.3984 7.43359 63.6797 8.08203C62.8125 8.86328 62.3789 10.1562 62.3789 11.9609C62.3789 12.4609 62.4336 12.8594 62.543 13.1562C62.5742 13.2578 62.6133 13.3477 62.6602 13.4258C62.6914 13.4805 62.707 13.5352 62.707 13.5898C61.8398 13.5898 61.207 13.418 60.8086 13.0742C60.3633 12.6992 60.1406 12.0977 60.1406 11.2695C60.1406 10.4414 60.293 9.65625 60.5977 8.91406C60.9102 8.16406 61.3828 7.50781 62.0156 6.94531C62.6953 6.33594 63.5586 5.86328 64.6055 5.52734C65.6602 5.19141 66.9023 5.02344 68.332 5.02344C69.1523 5.02344 69.9375 5.07031 70.6875 5.16406C70.9219 5.1875 71.2266 5.23047 71.6016 5.29297C72.2266 5.41016 72.8281 5.48828 73.4062 5.52734C73.6875 5.55859 74.043 5.57422 74.4727 5.57422C75.0039 5.57422 75.5117 5.52734 75.9961 5.43359C76.4805 5.33984 76.9023 5.21875 77.2617 5.07031C77.2227 6.11719 76.9531 6.88672 76.4531 7.37891C75.9609 7.87109 75.2305 8.11719 74.2617 8.11719C73.7383 8.11719 73.2109 8.07422 72.6797 7.98828C72.1484 7.90234 71.4336 7.76953 70.5352 7.58984L67.2188 23H63.7734L67.1719 7.10938ZM75.0586 23.0938C73.8711 23.0938 72.9531 22.8047 72.3047 22.2266C71.5781 21.5859 71.2148 20.6133 71.2148 19.3086C71.2148 18.8164 71.2656 18.2734 71.3672 17.6797C71.4688 17.0781 71.625 16.4727 71.8359 15.8633C72.3203 14.4102 73.0117 13.25 73.9102 12.3828C74.9961 11.3203 76.2891 10.7891 77.7891 10.7891C79.8438 10.7891 80.8711 12.0664 80.8711 14.6211V14.6445C80.918 14.6602 80.957 14.668 80.9883 14.668H81.1289C81.6602 14.668 82.2891 14.5195 83.0156 14.2227C83.6562 13.957 84.2617 13.625 84.832 13.2266L85.043 13.8828C84.5742 14.375 83.9688 14.793 83.2266 15.1367C82.4922 15.4805 81.6797 15.7266 80.7891 15.875C80.6953 16.9609 80.4844 17.9531 80.1562 18.8516C79.8281 19.7422 79.4062 20.5078 78.8906 21.1484C78.3828 21.7734 77.8008 22.2539 77.1445 22.5898C76.4883 22.9258 75.793 23.0938 75.0586 23.0938ZM76.0195 20.9375C76.3008 20.9375 76.5859 20.8125 76.875 20.5625C77.1719 20.3047 77.4492 19.9492 77.707 19.4961C77.9648 19.043 78.1875 18.5117 78.375 17.9023C78.5625 17.293 78.7031 16.6406 78.7969 15.9453C78.5625 15.8828 78.3945 15.7656 78.293 15.5938C78.1992 15.4219 78.1523 15.2031 78.1523 14.9375C78.1523 14.6094 78.2188 14.3359 78.3516 14.1172C78.4844 13.8984 78.668 13.7383 78.9023 13.6367C78.8711 13.1289 78.7891 12.7656 78.6562 12.5469C78.5859 12.4375 78.4961 12.3594 78.3867 12.3125C78.2852 12.2656 78.1523 12.2422 77.9883 12.2422C77.4492 12.2422 76.9219 12.6484 76.4062 13.4609C75.9297 14.1953 75.5391 15.1016 75.2344 16.1797C74.9375 17.2344 74.7891 18.1719 74.7891 18.9922C74.7891 19.3906 74.8086 19.7148 74.8477 19.9648C74.8945 20.2148 74.9688 20.4102 75.0703 20.5508C75.1641 20.6914 75.2852 20.793 75.4336 20.8555C75.582 20.9102 75.7773 20.9375 76.0195 20.9375ZM90.7617 23.1406C89.7695 23.1406 89.0352 22.8594 88.5586 22.2969C88.1445 21.8125 87.9375 21.1914 87.9375 20.4336C87.9375 20.0742 87.9805 19.6562 88.0664 19.1797C88.1602 18.7031 88.2969 18.0898 88.4766 17.3398C88.6562 16.5742 88.7891 15.9648 88.875 15.5117C88.9688 15.0508 89.0156 14.6523 89.0156 14.3164C89.0156 13.4961 88.7266 13.0859 88.1484 13.0859C87.7422 13.0859 87.3672 13.3008 87.0234 13.7305C86.7344 14.0977 86.4844 14.6211 86.2734 15.3008L84.6445 23H81.1875L83.7305 11H87.1875L86.9297 12.2422C87.3984 11.7188 87.9023 11.3516 88.4414 11.1406C88.8398 10.9844 89.2695 10.9062 89.7305 10.9062C90.543 10.9062 91.1836 11.1172 91.6523 11.5391C92.1523 12 92.4023 12.6914 92.4023 13.6133C92.4023 14.168 92.3008 14.8906 92.0977 15.7812C92.043 16.0391 91.9531 16.4258 91.8281 16.9414C91.6016 17.8086 91.4375 18.5 91.3359 19.0156C91.2734 19.3438 91.2422 19.6094 91.2422 19.8125C91.2422 20.1328 91.3125 20.3828 91.4531 20.5625C91.6016 20.7344 91.8516 20.8203 92.2031 20.8203C92.6797 20.8203 93.082 20.625 93.4102 20.2344C93.6602 19.9375 93.9297 19.4258 94.2188 18.6992H95.2266C94.6328 20.457 93.8828 21.6875 92.9766 22.3906C92.3359 22.8906 91.5977 23.1406 90.7617 23.1406ZM97.957 29C97.582 29 97.2305 28.9492 96.9023 28.8477C96.582 28.7539 96.3047 28.6094 96.0703 28.4141C95.8203 28.2188 95.625 27.9727 95.4844 27.6758C95.3438 27.3867 95.2734 27.0508 95.2734 26.668C95.2734 25.7617 95.6992 24.9844 96.5508 24.3359C97.1914 23.8594 98.0703 23.4453 99.1875 23.0938L99.4805 21.8047C99.0117 22.3203 98.5039 22.6836 97.957 22.8945C97.5352 23.0586 97.082 23.1406 96.5977 23.1406C95.832 23.1406 95.2266 22.9141 94.7812 22.4609C94.2812 21.9609 94.0312 21.2305 94.0312 20.2695C94.0312 19.8164 94.0938 19.293 94.2188 18.6992L95.8477 11H99.3047L97.582 19.1562C97.5352 19.3516 97.5117 19.5547 97.5117 19.7656C97.5117 20.0703 97.5625 20.3125 97.6641 20.4922C97.7812 20.7109 97.9688 20.8203 98.2266 20.8203C98.6484 20.8203 99.0273 20.6328 99.3633 20.2578C99.6523 19.9375 99.8984 19.4688 100.102 18.8516L101.777 11H105.234L102.855 22.1328C103.613 21.8828 104.219 21.5078 104.672 21.0078C105.164 20.4688 105.566 19.6992 105.879 18.6992H106.887C106.457 20.1211 105.816 21.2188 104.965 21.9922C104.34 22.5547 103.566 22.9531 102.645 23.1875L102.281 24.9219C101.977 26.4531 101.367 27.5625 100.453 28.25C99.7891 28.75 98.957 29 97.957 29ZM97.4062 27.125C97.6484 27.125 97.9062 26.9492 98.1797 26.5977C98.4453 26.2539 98.6523 25.7188 98.8008 24.9922L98.9414 24.3008C98.2148 24.5742 97.6719 24.8516 97.3125 25.1328C96.8359 25.4922 96.5977 25.8945 96.5977 26.3398C96.5977 26.5508 96.6641 26.7266 96.7969 26.8672C96.9453 27.0391 97.1484 27.125 97.4062 27.125ZM65.5195 37.7305L69.0703 37.2617L67.3711 45.2773C68.1289 45.2227 68.8516 44.8711 69.5391 44.2227C70.1641 43.6367 70.6602 42.8945 71.0273 41.9961C71.3867 41.1367 71.5664 40.2617 71.5664 39.3711C71.5664 38.4336 71.3359 37.6641 70.875 37.0625C70.625 36.7578 70.3086 36.5234 69.9258 36.3594C69.543 36.1875 69.0977 36.1016 68.5898 36.1016C67.6211 36.1016 66.75 36.2344 65.9766 36.5C65.2109 36.7656 64.5586 37.1484 64.0195 37.6484C63.4805 38.1484 63.0703 38.7617 62.7891 39.4883C62.5156 40.2148 62.3789 41.0312 62.3789 41.9375C62.3789 42.4375 62.4336 42.8359 62.543 43.1328C62.5742 43.2344 62.6133 43.3242 62.6602 43.4023C62.6914 43.457 62.707 43.5117 62.707 43.5664C61.8398 43.5664 61.207 43.3945 60.8086 43.0508C60.3633 42.6758 60.1406 42.0703 60.1406 41.2344C60.1406 40.7109 60.2539 40.1953 60.4805 39.6875C60.707 39.1719 61.0273 38.6758 61.4414 38.1992C61.832 37.7461 62.2969 37.3242 62.8359 36.9336C63.3828 36.5352 63.9727 36.1914 64.6055 35.9023C65.9336 35.3008 67.2539 35 68.5664 35C70.418 35 71.8555 35.4805 72.8789 36.4414C73.332 36.8711 73.668 37.3672 73.8867 37.9297C74.1133 38.4922 74.2266 39.0898 74.2266 39.7227C74.2266 40.4961 74.0664 41.2656 73.7461 42.0312C73.4336 42.7969 72.9805 43.4805 72.3867 44.082C71.7617 44.7227 71.0156 45.2305 70.1484 45.6055C69.2891 45.9727 68.3398 46.1562 67.3008 46.1562H67.1719L65.707 53H62.2617L65.5195 37.7305ZM77.7656 39.6992C77.5078 39.6992 77.2617 39.6523 77.0273 39.5586C76.793 39.457 76.5898 39.3203 76.418 39.1484C76.2461 38.9844 76.1094 38.7852 76.0078 38.5508C75.9141 38.3164 75.8672 38.0703 75.8672 37.8125C75.8672 37.5547 75.9141 37.3086 76.0078 37.0742C76.1094 36.8398 76.2461 36.6328 76.418 36.4531C76.5898 36.2734 76.793 36.1367 77.0273 36.043C77.2617 35.9414 77.5078 35.8906 77.7656 35.8906C78.0234 35.8906 78.2695 35.9414 78.5039 36.043C78.7383 36.1367 78.9453 36.2734 79.125 36.4531C79.3047 36.6328 79.4414 36.8398 79.5352 37.0742C79.6367 37.3086 79.6875 37.5547 79.6875 37.8125C79.6875 38.0703 79.6367 38.3164 79.5352 38.5508C79.4414 38.7852 79.3047 38.9844 79.125 39.1484C78.9453 39.3203 78.7383 39.457 78.5039 39.5586C78.2695 39.6523 78.0234 39.6992 77.7656 39.6992ZM76.1367 53.1406C75.3711 53.1406 74.7656 52.9141 74.3203 52.4609C73.8203 51.9609 73.5703 51.2305 73.5703 50.2695C73.5703 49.8164 73.6328 49.293 73.7578 48.6992L75.3867 41H78.8438L77.1211 49.1562C77.0586 49.3594 77.0273 49.6172 77.0273 49.9297C77.0273 50.2578 77.1016 50.4883 77.25 50.6211C77.4062 50.7539 77.6562 50.8203 78 50.8203C78.2344 50.8203 78.4609 50.7695 78.6797 50.668C78.9062 50.5586 79.1133 50.4102 79.3008 50.2227C79.6836 49.8398 79.9727 49.332 80.168 48.6992H81.1758C80.7461 49.9102 80.207 50.875 79.5586 51.5938C79.0117 52.1797 78.3945 52.6016 77.707 52.8594C77.207 53.0469 76.6836 53.1406 76.1367 53.1406ZM86.2969 42.3008H84.9609C84.5312 42.3008 84.2188 42.3203 84.0234 42.3594C83.7656 42.4062 83.6367 42.5117 83.6367 42.6758C83.6367 42.7148 83.6523 42.7383 83.6836 42.7461C83.7461 42.7617 83.8047 42.8164 83.8594 42.9102C83.8828 42.9648 83.8945 43.0625 83.8945 43.2031C83.8945 43.625 83.7617 43.9492 83.4961 44.1758C83.2461 44.3789 82.9492 44.4805 82.6055 44.4805C82.3242 44.4805 82.0742 44.3906 81.8555 44.2109C81.6211 44.0156 81.5039 43.7539 81.5039 43.4258C81.5039 43.1758 81.5703 42.9102 81.7031 42.6289C81.8359 42.3398 82.0195 42.0781 82.2539 41.8438C82.5039 41.5859 82.8008 41.3828 83.1445 41.2344C83.4961 41.0781 83.875 41 84.2812 41H90.457L84.5742 51.1484C84.6523 51.1562 84.9258 51.1836 85.3945 51.2305C85.7227 51.2773 86.0547 51.3008 86.3906 51.3008C86.7188 51.3008 86.9805 51.2656 87.1758 51.1953C87.3711 51.125 87.4883 51 87.5273 50.8203C87.3711 50.8047 87.2539 50.7539 87.1758 50.668C87.1055 50.5742 87.0703 50.457 87.0703 50.3164C87.0703 50.1992 87.0977 50.082 87.1523 49.9648C87.2148 49.8398 87.3008 49.7266 87.4102 49.625C87.6758 49.3984 88.0078 49.2852 88.4062 49.2852C88.7656 49.2852 89.0312 49.3906 89.2031 49.6016C89.3828 49.8125 89.4727 50.0898 89.4727 50.4336C89.4727 50.7148 89.4062 51.0078 89.2734 51.3125C89.1406 51.6094 88.9492 51.8828 88.6992 52.1328C88.4336 52.3984 88.1172 52.6094 87.75 52.7656C87.3906 52.9219 86.9883 53 86.543 53H80.1797L86.2969 42.3008ZM96.5859 42.3008H95.25C94.8203 42.3008 94.5078 42.3203 94.3125 42.3594C94.0547 42.4062 93.9258 42.5117 93.9258 42.6758C93.9258 42.7148 93.9414 42.7383 93.9727 42.7461C94.0352 42.7617 94.0938 42.8164 94.1484 42.9102C94.1719 42.9648 94.1836 43.0625 94.1836 43.2031C94.1836 43.625 94.0508 43.9492 93.7852 44.1758C93.5352 44.3789 93.2383 44.4805 92.8945 44.4805C92.6133 44.4805 92.3633 44.3906 92.1445 44.2109C91.9102 44.0156 91.793 43.7539 91.793 43.4258C91.793 43.1758 91.8594 42.9102 91.9922 42.6289C92.125 42.3398 92.3086 42.0781 92.543 41.8438C92.793 41.5859 93.0898 41.3828 93.4336 41.2344C93.7852 41.0781 94.1641 41 94.5703 41H100.746L94.8633 51.1484C94.9414 51.1562 95.2148 51.1836 95.6836 51.2305C96.0117 51.2773 96.3438 51.3008 96.6797 51.3008C97.0078 51.3008 97.2695 51.2656 97.4648 51.1953C97.6602 51.125 97.7773 51 97.8164 50.8203C97.6602 50.8047 97.543 50.7539 97.4648 50.668C97.3945 50.5742 97.3594 50.457 97.3594 50.3164C97.3594 50.1992 97.3867 50.082 97.4414 49.9648C97.5039 49.8398 97.5898 49.7266 97.6992 49.625C97.9648 49.3984 98.2969 49.2852 98.6953 49.2852C99.0547 49.2852 99.3203 49.3906 99.4922 49.6016C99.6719 49.8125 99.7617 50.0898 99.7617 50.4336C99.7617 50.7148 99.6953 51.0078 99.5625 51.3125C99.4297 51.6094 99.2383 51.8828 98.9883 52.1328C98.7227 52.3984 98.4062 52.6094 98.0391 52.7656C97.6797 52.9219 97.2773 53 96.832 53H90.4688L96.5859 42.3008ZM103.641 53.1406C102.727 53.1406 101.988 52.8555 101.426 52.2852C100.77 51.6133 100.441 50.6133 100.441 49.2852C100.441 48.7227 100.5 48.1289 100.617 47.5039C100.727 46.8789 100.891 46.2617 101.109 45.6523C101.609 44.2773 102.293 43.168 103.16 42.3242C104.16 41.3633 105.312 40.8828 106.617 40.8828C107.266 40.8828 107.75 40.9961 108.07 41.2227C108.398 41.4414 108.562 41.7344 108.562 42.1016V42.2773L108.82 41H112.277L110.555 49.1562C110.484 49.3906 110.449 49.6484 110.449 49.9297C110.449 50.6172 110.777 50.9609 111.434 50.9609C111.871 50.9609 112.27 50.7383 112.629 50.293C112.934 49.918 113.184 49.3867 113.379 48.6992H114.387C113.957 49.918 113.438 50.8828 112.828 51.5938C112.312 52.1797 111.73 52.6016 111.082 52.8594C110.605 53.0469 110.102 53.1406 109.57 53.1406C108.891 53.1406 108.348 52.957 107.941 52.5898C107.543 52.2148 107.301 51.6641 107.215 50.9375C106.762 51.5781 106.285 52.0781 105.785 52.4375C105.145 52.9062 104.43 53.1406 103.641 53.1406ZM105.199 50.8203C105.379 50.8203 105.566 50.7734 105.762 50.6797C105.965 50.5859 106.16 50.4531 106.348 50.2812C106.77 49.875 107.051 49.3477 107.191 48.6992L108.34 43.2852C108.34 43.207 108.32 43.1172 108.281 43.0156C108.25 42.9062 108.203 42.8047 108.141 42.7109C107.953 42.4844 107.691 42.3711 107.355 42.3711C107.035 42.3711 106.723 42.4766 106.418 42.6875C106.121 42.8984 105.84 43.1914 105.574 43.5664C105.105 44.2461 104.719 45.1328 104.414 46.2266C104.273 46.7109 104.168 47.1914 104.098 47.668C104.027 48.1367 103.992 48.5625 103.992 48.9453C103.992 49.7422 104.141 50.2812 104.438 50.5625C104.539 50.6719 104.652 50.7422 104.777 50.7734C104.902 50.8047 105.043 50.8203 105.199 50.8203ZM115.02 41H118.477L118.172 42.4883C118.719 42.0039 119.164 41.6602 119.508 41.457C120.039 41.1523 120.559 41 121.066 41C121.582 41 121.996 41.1836 122.309 41.5508C122.449 41.7148 122.555 41.9062 122.625 42.125C122.695 42.3359 122.73 42.5625 122.73 42.8047C122.73 43.0234 122.695 43.2344 122.625 43.4375C122.555 43.6406 122.449 43.8242 122.309 43.9883C122.152 44.1602 121.961 44.2969 121.734 44.3984C121.516 44.5 121.27 44.5508 120.996 44.5508C120.785 44.5508 120.617 44.5156 120.492 44.4453C120.367 44.375 120.27 44.2734 120.199 44.1406C120.137 44.0078 120.094 43.8789 120.07 43.7539C120 43.418 119.93 43.1953 119.859 43.0859C119.805 43.0078 119.719 42.9688 119.602 42.9688C119.266 42.9688 118.98 43.0391 118.746 43.1797C118.512 43.3203 118.215 43.5547 117.855 43.8828L115.934 53H112.477L115.02 41ZM126.422 39.6992C126.164 39.6992 125.918 39.6523 125.684 39.5586C125.449 39.457 125.246 39.3203 125.074 39.1484C124.902 38.9844 124.766 38.7852 124.664 38.5508C124.57 38.3164 124.523 38.0703 124.523 37.8125C124.523 37.5547 124.57 37.3086 124.664 37.0742C124.766 36.8398 124.902 36.6328 125.074 36.4531C125.246 36.2734 125.449 36.1367 125.684 36.043C125.918 35.9414 126.164 35.8906 126.422 35.8906C126.68 35.8906 126.926 35.9414 127.16 36.043C127.395 36.1367 127.602 36.2734 127.781 36.4531C127.961 36.6328 128.098 36.8398 128.191 37.0742C128.293 37.3086 128.344 37.5547 128.344 37.8125C128.344 38.0703 128.293 38.3164 128.191 38.5508C128.098 38.7852 127.961 38.9844 127.781 39.1484C127.602 39.3203 127.395 39.457 127.16 39.5586C126.926 39.6523 126.68 39.6992 126.422 39.6992ZM124.793 53.1406C124.027 53.1406 123.422 52.9141 122.977 52.4609C122.477 51.9609 122.227 51.2305 122.227 50.2695C122.227 49.8164 122.289 49.293 122.414 48.6992L124.043 41H127.5L125.777 49.1562C125.715 49.3594 125.684 49.6172 125.684 49.9297C125.684 50.2578 125.758 50.4883 125.906 50.6211C126.062 50.7539 126.312 50.8203 126.656 50.8203C126.891 50.8203 127.117 50.7695 127.336 50.668C127.562 50.5586 127.77 50.4102 127.957 50.2227C128.34 49.8398 128.629 49.332 128.824 48.6992H129.832C129.402 49.9102 128.863 50.875 128.215 51.5938C127.668 52.1797 127.051 52.6016 126.363 52.8594C125.863 53.0469 125.34 53.1406 124.793 53.1406ZM131.719 53.1406C130.805 53.1406 130.066 52.8555 129.504 52.2852C128.848 51.6133 128.52 50.6133 128.52 49.2852C128.52 48.7227 128.578 48.1289 128.695 47.5039C128.805 46.8789 128.969 46.2617 129.188 45.6523C129.688 44.2773 130.371 43.168 131.238 42.3242C132.238 41.3633 133.391 40.8828 134.695 40.8828C135.344 40.8828 135.828 40.9961 136.148 41.2227C136.477 41.4414 136.641 41.7344 136.641 42.1016V42.2773L136.898 41H140.355L138.633 49.1562C138.562 49.3906 138.527 49.6484 138.527 49.9297C138.527 50.6172 138.855 50.9609 139.512 50.9609C139.949 50.9609 140.348 50.7383 140.707 50.293C141.012 49.918 141.262 49.3867 141.457 48.6992H142.465C142.035 49.918 141.516 50.8828 140.906 51.5938C140.391 52.1797 139.809 52.6016 139.16 52.8594C138.684 53.0469 138.18 53.1406 137.648 53.1406C136.969 53.1406 136.426 52.957 136.02 52.5898C135.621 52.2148 135.379 51.6641 135.293 50.9375C134.84 51.5781 134.363 52.0781 133.863 52.4375C133.223 52.9062 132.508 53.1406 131.719 53.1406ZM133.277 50.8203C133.457 50.8203 133.645 50.7734 133.84 50.6797C134.043 50.5859 134.238 50.4531 134.426 50.2812C134.848 49.875 135.129 49.3477 135.27 48.6992L136.418 43.2852C136.418 43.207 136.398 43.1172 136.359 43.0156C136.328 42.9062 136.281 42.8047 136.219 42.7109C136.031 42.4844 135.77 42.3711 135.434 42.3711C135.113 42.3711 134.801 42.4766 134.496 42.6875C134.199 42.8984 133.918 43.1914 133.652 43.5664C133.184 44.2461 132.797 45.1328 132.492 46.2266C132.352 46.7109 132.246 47.1914 132.176 47.668C132.105 48.1367 132.07 48.5625 132.07 48.9453C132.07 49.7422 132.219 50.2812 132.516 50.5625C132.617 50.6719 132.73 50.7422 132.855 50.7734C132.98 50.8047 133.121 50.8203 133.277 50.8203Z" fill="white"/>
</svg>
